#!OML:ASF H:\LiuWeirdWalks\Patient Classification 1\Patient 1\Session 1\male.ASF
:FULLY-SPECIFIED
:DEGREES
1224
root 1.59929 18.025 29.3811 3.69008 4.04025 10.2658
lowerback 11.0111 0.174977 4.32589
upperback 1.32772 1.08028 6.11564
thorax -4.83787 0.510197 3.8271
lowerneck -24.7686 -0.519256 4.97802
upperneck 25.0684 2.93841 -18.6124
head 12.9934 -0.741157 -7.74044
rclavicle 6.36111e-015 -6.99722e-014
rhumerus -32.9179 -27.9669 -15.2719
rradius 35.809
rwrist -8.46194
rhand -20.7601 -5.57429
rfingers 7.12502
rthumb 5.60599 -35.4801
lclavicle 6.36111e-015 -6.99722e-014
lhumerus -26.6167 26.7763 25.7089
lradius 40.8256
lwrist 3.97788
lhand -22.1885 -3.66083
lfingers 7.12502
lthumb 4.22671 26.277
rfemur -22.284 -4.43254 6.3836
rtibia 36.5111
rfoot -11.9728 -9.22441
rtoes -2.43298
lfemur -9.60703 0.107125 -22.2688
ltibia 51.3926
lfoot 2.03497 -2.8195
ltoes -18.7205
1225
root 1.58811 18.0345 29.421 3.66148 4.06253 10.0923
lowerback 11.0323 0.179861 4.44555
upperback 1.31392 1.10629 6.15544
thorax -4.86401 0.520929 3.79845
lowerneck -24.7915 -0.55965 4.89062
upperneck 25.1382 2.88926 -18.4945
head 13.0138 -0.759409 -7.68943
rclavicle 3.18055e-015 4.13472e-014
rhumerus -33.0654 -28.0033 -15.3479
rradius 35.7297
rwrist -8.41402
rhand -20.7443 -5.52502
rfingers 7.12502
rthumb 5.62122 -35.4305
lclavicle 3.18055e-015 4.13472e-014
lhumerus -26.5851 26.6864 25.8509
lradius 40.8317
lwrist 4.13139
lhand -22.2835 -3.59703
lfingers 7.12502
lthumb 4.135 26.3426
rfemur -22.0164 -4.27521 6.6269
rtibia 36.3188
rfoot -11.9508 -9.40256
rtoes -2.45464
lfemur -9.99366 0.377745 -22.0509
ltibia 51.5821
lfoot 1.384 -2.16295
ltoes -18.7452
1226
root 1.57628 18.0438 29.4594 3.62374 4.07718 9.86561
lowerback 11.0736 0.186567 4.58856
upperback 1.2986 1.14031 6.20925
thorax -4.90306 0.535147 3.77051
lowerneck -24.8341 -0.598532 4.80694
upperneck 25.2037 2.84075 -18.3788
head 13.0369 -0.777913 -7.64043
rclavicle -4.77083e-015 -2.8625e-014
rhumerus -33.2355 -28.1247 -15.3671
rradius 35.5861
rwrist -8.11889
rhand -20.5838 -5.24668
rfingers 7.12502
rthumb 5.77621 -35.1479
lclavicle -4.77083e-015 -2.8625e-014
lhumerus -26.5554 26.6079 25.9879
lradius 40.8074
lwrist 4.22219
lhand -22.3486 -3.56286
lfingers 7.12502
lthumb 4.07217 26.378
rfemur -21.7504 -4.0853 6.93289
rtibia 36.1205
rfoot -11.9207 -9.60259
rtoes -2.47848
lfemur -10.3796 0.669592 -21.7739
ltibia 51.6989
lfoot 0.763528 -1.58815
ltoes -18.7856
1227
root 1.56447 18.0529 29.4975 3.58194 4.07833 9.59757
lowerback 11.1152 0.199624 4.76272
upperback 1.28352 1.18681 6.2653
thorax -4.94175 0.554824 3.72553
lowerneck -24.8766 -0.63887 4.72779
upperneck 25.2602 2.78599 -18.2599
head 13.0554 -0.798073 -7.59114
rclavicle 1.98785e-014 -8.26944e-014
rhumerus -33.4501 -28.3387 -15.3188
rradius 35.3826
rwrist -7.5822
rhand -20.2914 -4.7342
rfingers 7.12502
rthumb 6.0585 -34.6276
lclavicle 1.98785e-014 -8.26944e-014
lhumerus -26.5211 26.5372 26.1216
lradius 40.7674
lwrist 4.23689
lhand -22.3676 -3.55135
lfingers 7.12502
lthumb 4.05383 26.3898
rfemur -21.4897 -3.88794 7.28632
rtibia 35.9217
rfoot -11.8899 -9.79792
rtoes -2.51026
lfemur -10.761 0.971888 -21.4587
ltibia 51.7366
lfoot 0.133741 -1.07598
ltoes -18.8106
1228
root 1.55532 18.0606 29.5366 3.53748 4.08539 9.39818
lowerback 11.1261 0.20797 4.88835
upperback 1.28316 1.21563 6.29163
thorax -4.94732 0.566712 3.67852
lowerneck -24.9148 -0.672742 4.66803
upperneck 25.2829 2.73125 -18.1523
head 13.0598 -0.816718 -7.54686
rclavicle 1.74931e-014 -9.54166e-015
rhumerus -33.6475 -28.5218 -15.3187
rradius 35.2423
rwrist -7.30085
rhand -20.1365 -4.46715
rfingers 7.12502
rthumb 6.20803 -34.3562
lclavicle 1.74931e-014 -9.54166e-015
lhumerus -26.4941 26.4992 26.2416
lradius 40.7109
lwrist 4.17687
lhand -22.3493 -3.57374
lfingers 7.12502
lthumb 4.07147 26.3671
rfemur -21.2202 -3.79411 7.55095
rtibia 35.7374
rfoot -11.8768 -9.90255
rtoes -2.56249
lfemur -11.108 1.24407 -21.2497
ltibia 51.684
lfoot -0.551465 -0.593196
ltoes -18.8556
1229
root 1.54663 18.0675 29.5754 3.48461 4.08162 9.1623
lowerback 11.143 0.2197 5.04356
upperback 1.28224 1.25323 6.31969
thorax -4.95637 0.58228 3.61542
lowerneck -24.9318 -0.700624 4.62692
upperneck 25.2717 2.67693 -18.0581
head 13.0467 -0.833393 -7.5076
rclavicle 2.70347e-014 4.45278e-014
rhumerus -33.8585 -28.7013 -15.3174
rradius 35.1152
rwrist -7.10609
rhand -20.0231 -4.26758
rfingers 7.12502
rthumb 6.31753 -34.1534
lclavicle 2.70347e-014 4.45278e-014
lhumerus -26.4792 26.4766 26.3478
lradius 40.6487
lwrist 4.01187
lhand -22.2659 -3.67323
lfingers 7.12502
lthumb 4.15199 26.2661
rfemur -20.9551 -3.70536 7.85793
rtibia 35.5724
rfoot -11.8743 -10.0013
rtoes -2.64657
lfemur -11.4364 1.51856 -21.0104
ltibia 51.5479
lfoot -1.29174 -0.171244
ltoes -18.905
1230
root 1.53938 18.0729 29.6156 3.44338 4.08018 8.98402
lowerback 11.1185 0.235738 5.15541
upperback 1.28604 1.28535 6.32
thorax -4.93715 0.596004 3.54773
lowerneck -24.9355 -0.72356 4.60988
upperneck 25.2334 2.62098 -17.9796
head 13.0201 -0.849203 -7.47664
rclavicle -7.95139e-016 -9.54166e-015
rhumerus -34.0801 -28.775 -15.3776
rradius 35.0974
rwrist -7.26458
rhand -20.081 -4.4036
rfingers 7.12502
rthumb 6.26166 -34.2911
lclavicle -7.95139e-016 -9.54166e-015
lhumerus -26.4692 26.4575 26.4514
lradius 40.5927
lwrist 3.79625
lhand -22.1581 -3.83851
lfingers 7.12502
lthumb 4.25611 26.0987
rfemur -20.7035 -3.68588 8.09594
rtibia 35.437
rfoot -11.8967 -10.0481
rtoes -2.7672
lfemur -11.7441 1.76307 -20.8592
ltibia 51.3191
lfoot -2.06817 0.220632
ltoes -18.9842
1231
root 1.53229 18.0772 29.6558 3.40118 4.07396 8.83964
lowerback 11.0946 0.258412 5.22624
upperback 1.28686 1.32069 6.30544
thorax -4.92188 0.611937 3.48683
lowerneck -24.9374 -0.746104 4.59205
upperneck 25.2008 2.56713 -17.9017
head 12.9959 -0.864272 -7.44599
rclavicle 2.46493e-014 9.22361e-014
rhumerus -34.306 -28.7795 -15.4694
rradius 35.1393
rwrist -7.68467
rhand -20.2644 -4.73566
rfingers 7.12502
rthumb 6.08452 -34.6283
lclavicle 2.46493e-014 9.22361e-014
lhumerus -26.4694 26.4088 26.5626
lradius 40.5543
lwrist 3.61554
lhand -22.0635 -4.00739
lfingers 7.12502
lthumb 4.34742 25.928
rfemur -20.4638 -3.67446 8.29734
rtibia 35.3299
rfoot -11.9297 -10.092
rtoes -2.90317
lfemur -12.0345 1.99565 -20.7575
ltibia 51.0061
lfoot -2.85116 0.580366
ltoes -19.005
1232
root 1.52494 18.0803 29.6961 3.35627 4.06613 8.69553
lowerback 11.0693 0.280821 5.2734
upperback 1.28693 1.35276 6.29176
thorax -4.90695 0.626757 3.44075
lowerneck -24.949 -0.760047 4.58251
upperneck 25.1599 2.52389 -17.8318
head 12.9724 -0.875015 -7.41827
rclavicle -1.51076e-014 9.54166e-015
rhumerus -34.5146 -28.7435 -15.5805
rradius 35.185
rwrist -8.21703
rhand -20.4896 -5.0918
rfingers 7.12502
rthumb 5.8671 -34.9906
lclavicle -1.51076e-014 9.54166e-015
lhumerus -26.4869 26.361 26.6663
lradius 40.5098
lwrist 3.44484
lhand -21.9532 -4.19241
lfingers 7.12502
lthumb 4.45396 25.7408
rfemur -20.2339 -3.65799 8.49962
rtibia 35.2472
rfoot -11.9724 -10.143
rtoes -3.04752
lfemur -12.3074 2.2165 -20.6637
ltibia 50.6124
lfoot -3.6338 0.911606
ltoes -19.015
